<?xml version="1.0" encoding="UTF-8" standalone="no"?>
<!DOCTYPE svg PUBLIC "-//W3C//DTD SVG 1.1//EN" "http://www.w3.org/Graphics/SVG/1.1/DTD/svg11.dtd">
<svg width="100%" height="100%" viewBox="0 0 1800 1800" version="1.1" xmlns="http://www.w3.org/2000/svg" xmlns:xlink="http://www.w3.org/1999/xlink" xml:space="preserve" xmlns:serif="http://www.serif.com/" style="fill-rule:evenodd;clip-rule:evenodd;stroke-linejoin:round;stroke-miterlimit:2;">
    <g id="halftone-tile" serif:id="halftone tile" transform="matrix(1,0,0,1,187.5,187.5)">
    </g>
    <g transform="matrix(1.03197,0,0,0.991189,164.267,150.661)">
        <g transform="matrix(1.03179,0,0,1.03179,-24.2862,-9.64144)">
            <circle cx="714.5" cy="351.465" r="49.426"/>
        </g>
        <g transform="matrix(0.927622,0,0,0.927622,49.714,132.322)">
            <circle cx="714.5" cy="351.465" r="49.426"/>
        </g>
        <g transform="matrix(0.821401,0,0,0.821401,127.609,270.708)">
            <circle cx="714.5" cy="351.465" r="49.426"/>
        </g>
        <g transform="matrix(0.758864,0,0,0.758864,172.291,397.347)">
            <circle cx="714.5" cy="351.465" r="49.426"/>
        </g>
        <g transform="matrix(0.689919,0,0,0.689919,219.56,529.668)">
            <circle cx="714.5" cy="351.465" r="49.426"/>
        </g>
        <g transform="matrix(0.616619,0,0,0.616619,271.933,657.507)">
            <circle cx="714.5" cy="351.465" r="49.426"/>
        </g>
        <g transform="matrix(0.536477,0,0,0.536477,329.195,789.509)">
            <circle cx="714.5" cy="351.465" r="49.426"/>
        </g>
        <g transform="matrix(0.457916,0,0,0.457916,385.326,922.676)">
            <circle cx="714.5" cy="351.465" r="49.426"/>
        </g>
        <g transform="matrix(0.457916,0,0,0.457916,385.326,1026.43)">
            <circle cx="714.5" cy="351.465" r="49.426"/>
        </g>
        <g transform="matrix(0.758864,0,0,0.758864,273.151,341.374)">
            <circle cx="714.5" cy="351.465" r="49.426"/>
        </g>
        <g transform="matrix(0.689919,0,0,0.689919,320.42,473.695)">
            <circle cx="714.5" cy="351.465" r="49.426"/>
        </g>
        <g transform="matrix(0.616619,0,0,0.616619,372.792,601.534)">
            <circle cx="714.5" cy="351.465" r="49.426"/>
        </g>
        <g transform="matrix(0.536477,0,0,0.536477,430.054,733.536)">
            <circle cx="714.5" cy="351.465" r="49.426"/>
        </g>
        <g transform="matrix(0.457916,0,0,0.457916,486.186,866.702)">
            <circle cx="714.5" cy="351.465" r="49.426"/>
        </g>
        <g transform="matrix(0.457916,0,0,0.457916,486.186,970.452)">
            <circle cx="714.5" cy="351.465" r="49.426"/>
        </g>
        <g transform="matrix(0.758864,0,0,0.758864,374.064,283.667)">
            <circle cx="714.5" cy="351.465" r="49.426"/>
        </g>
        <g transform="matrix(0.689919,0,0,0.689919,421.333,415.988)">
            <circle cx="714.5" cy="351.465" r="49.426"/>
        </g>
        <g transform="matrix(0.616619,0,0,0.616619,473.706,543.827)">
            <circle cx="714.5" cy="351.465" r="49.426"/>
        </g>
        <g transform="matrix(0.536477,0,0,0.536477,530.968,675.829)">
            <circle cx="714.5" cy="351.465" r="49.426"/>
        </g>
        <g transform="matrix(0.457916,0,0,0.457916,587.099,808.996)">
            <circle cx="714.5" cy="351.465" r="49.426"/>
        </g>
        <g transform="matrix(0.457916,0,0,0.457916,587.099,912.746)">
            <circle cx="714.5" cy="351.465" r="49.426"/>
        </g>
        <g transform="matrix(0.758864,0,0,0.758864,470.299,229.07)">
            <circle cx="714.5" cy="351.465" r="49.426"/>
        </g>
        <g transform="matrix(0.689919,0,0,0.689919,517.568,361.391)">
            <circle cx="714.5" cy="351.465" r="49.426"/>
        </g>
        <g transform="matrix(0.616619,0,0,0.616619,569.941,489.23)">
            <circle cx="714.5" cy="351.465" r="49.426"/>
        </g>
        <g transform="matrix(0.536477,0,0,0.536477,627.203,621.232)">
            <circle cx="714.5" cy="351.465" r="49.426"/>
        </g>
        <g transform="matrix(0.457916,0,0,0.457916,683.334,754.398)">
            <circle cx="714.5" cy="351.465" r="49.426"/>
        </g>
        <g transform="matrix(0.457916,0,0,0.457916,683.334,858.148)">
            <circle cx="714.5" cy="351.465" r="49.426"/>
        </g>
        <g transform="matrix(0.689919,0,0,0.689919,621.953,305.643)">
            <circle cx="714.5" cy="351.465" r="49.426"/>
        </g>
        <g transform="matrix(0.616619,0,0,0.616619,674.326,433.482)">
            <circle cx="714.5" cy="351.465" r="49.426"/>
        </g>
        <g transform="matrix(0.536477,0,0,0.536477,731.588,565.484)">
            <circle cx="714.5" cy="351.465" r="49.426"/>
        </g>
        <g transform="matrix(0.457916,0,0,0.457916,787.719,698.65)">
            <circle cx="714.5" cy="351.465" r="49.426"/>
        </g>
        <g transform="matrix(0.457916,0,0,0.457916,787.719,802.4)">
            <circle cx="714.5" cy="351.465" r="49.426"/>
        </g>
        <g transform="matrix(0.821401,0,0,0.821401,228.133,215.503)">
            <circle cx="714.5" cy="351.465" r="49.426"/>
        </g>
        <g transform="matrix(0.821401,0,0,0.821401,327.214,158.208)">
            <circle cx="714.5" cy="351.465" r="49.426"/>
        </g>
        <g transform="matrix(0.821401,0,0,0.821401,327.214,158.208)">
            <circle cx="714.5" cy="351.465" r="49.426"/>
        </g>
        <g transform="matrix(0.927622,0,0,0.927622,146.988,77.9676)">
            <circle cx="714.5" cy="351.465" r="49.426"/>
        </g>
        <g transform="matrix(-0.758864,0,0,0.758864,1152.73,341.374)">
            <circle cx="714.5" cy="351.465" r="49.426"/>
        </g>
        <g transform="matrix(-0.689919,0,0,0.689919,1105.46,473.695)">
            <circle cx="714.5" cy="351.465" r="49.426"/>
        </g>
        <g transform="matrix(-0.616619,0,0,0.616619,1053.09,601.534)">
            <circle cx="714.5" cy="351.465" r="49.426"/>
        </g>
        <g transform="matrix(-0.536477,0,0,0.536477,995.827,733.536)">
            <circle cx="714.5" cy="351.465" r="49.426"/>
        </g>
        <g transform="matrix(-0.457916,0,0,0.457916,939.696,866.702)">
            <circle cx="714.5" cy="351.465" r="49.426"/>
        </g>
        <g transform="matrix(-0.457916,0,0,0.457916,939.696,970.452)">
            <circle cx="714.5" cy="351.465" r="49.426"/>
        </g>
        <g transform="matrix(-0.758864,0,0,0.758864,1051.82,283.667)">
            <circle cx="714.5" cy="351.465" r="49.426"/>
        </g>
        <g transform="matrix(-0.689919,0,0,0.689919,1004.55,415.988)">
            <circle cx="714.5" cy="351.465" r="49.426"/>
        </g>
        <g transform="matrix(-0.616619,0,0,0.616619,952.176,543.827)">
            <circle cx="714.5" cy="351.465" r="49.426"/>
        </g>
        <g transform="matrix(-0.536477,0,0,0.536477,894.914,675.829)">
            <circle cx="714.5" cy="351.465" r="49.426"/>
        </g>
        <g transform="matrix(-0.457916,0,0,0.457916,838.782,808.996)">
            <circle cx="714.5" cy="351.465" r="49.426"/>
        </g>
        <g transform="matrix(-0.457916,0,0,0.457916,838.782,912.746)">
            <circle cx="714.5" cy="351.465" r="49.426"/>
        </g>
        <g transform="matrix(-0.758864,0,0,0.758864,955.583,229.07)">
            <circle cx="714.5" cy="351.465" r="49.426"/>
        </g>
        <g transform="matrix(-0.689919,0,0,0.689919,908.314,361.391)">
            <circle cx="714.5" cy="351.465" r="49.426"/>
        </g>
        <g transform="matrix(-0.616619,0,0,0.616619,855.941,489.23)">
            <circle cx="714.5" cy="351.465" r="49.426"/>
        </g>
        <g transform="matrix(-0.536477,0,0,0.536477,798.679,621.232)">
            <circle cx="714.5" cy="351.465" r="49.426"/>
        </g>
        <g transform="matrix(-0.457916,0,0,0.457916,742.548,754.398)">
            <circle cx="714.5" cy="351.465" r="49.426"/>
        </g>
        <g transform="matrix(-0.457916,0,0,0.457916,742.548,858.148)">
            <circle cx="714.5" cy="351.465" r="49.426"/>
        </g>
        <g transform="matrix(-0.689919,0,0,0.689919,803.928,305.643)">
            <circle cx="714.5" cy="351.465" r="49.426"/>
        </g>
        <g transform="matrix(-0.616619,0,0,0.616619,751.556,433.482)">
            <circle cx="714.5" cy="351.465" r="49.426"/>
        </g>
        <g transform="matrix(-0.536477,0,0,0.536477,694.294,565.484)">
            <circle cx="714.5" cy="351.465" r="49.426"/>
        </g>
        <g transform="matrix(-0.457916,0,0,0.457916,638.163,698.65)">
            <circle cx="714.5" cy="351.465" r="49.426"/>
        </g>
        <g transform="matrix(-0.457916,0,0,0.457916,638.163,802.4)">
            <circle cx="714.5" cy="351.465" r="49.426"/>
        </g>
        <g transform="matrix(-0.821401,0,0,0.821401,1197.75,215.503)">
            <circle cx="714.5" cy="351.465" r="49.426"/>
        </g>
        <g transform="matrix(-0.821401,0,0,0.821401,1098.67,158.208)">
            <circle cx="714.5" cy="351.465" r="49.426"/>
        </g>
        <g transform="matrix(-0.927622,0,0,0.927622,1278.89,77.9676)">
            <circle cx="714.5" cy="351.465" r="49.426"/>
        </g>
    </g>
    <g transform="matrix(1.03197,0,0,0.991189,1064.27,-749.339)">
        <g transform="matrix(0.689919,0,0,0.689919,219.56,529.668)">
            <circle cx="714.5" cy="351.465" r="49.426"/>
        </g>
        <g transform="matrix(0.616619,0,0,0.616619,271.933,657.507)">
            <circle cx="714.5" cy="351.465" r="49.426"/>
        </g>
        <g transform="matrix(0.536477,0,0,0.536477,329.195,789.509)">
            <circle cx="714.5" cy="351.465" r="49.426"/>
        </g>
        <g transform="matrix(0.457916,0,0,0.457916,385.326,922.676)">
            <circle cx="714.5" cy="351.465" r="49.426"/>
        </g>
        <g transform="matrix(0.457916,0,0,0.457916,385.326,1026.43)">
            <circle cx="714.5" cy="351.465" r="49.426"/>
        </g>
        <g transform="matrix(-0.616619,0,0,0.616619,1053.09,601.534)">
            <circle cx="714.5" cy="351.465" r="49.426"/>
        </g>
        <g transform="matrix(-0.536477,0,0,0.536477,995.827,733.536)">
            <circle cx="714.5" cy="351.465" r="49.426"/>
        </g>
        <g transform="matrix(-0.457916,0,0,0.457916,939.696,866.702)">
            <circle cx="714.5" cy="351.465" r="49.426"/>
        </g>
        <g transform="matrix(-0.457916,0,0,0.457916,939.696,970.452)">
            <circle cx="714.5" cy="351.465" r="49.426"/>
        </g>
        <g transform="matrix(-0.616619,0,0,0.616619,952.176,543.827)">
            <circle cx="714.5" cy="351.465" r="49.426"/>
        </g>
        <g transform="matrix(-0.536477,0,0,0.536477,894.914,675.829)">
            <circle cx="714.5" cy="351.465" r="49.426"/>
        </g>
        <g transform="matrix(-0.457916,0,0,0.457916,838.782,808.996)">
            <circle cx="714.5" cy="351.465" r="49.426"/>
        </g>
        <g transform="matrix(-0.457916,0,0,0.457916,838.782,912.746)">
            <circle cx="714.5" cy="351.465" r="49.426"/>
        </g>
        <g transform="matrix(-0.536477,0,0,0.536477,798.679,621.232)">
            <circle cx="714.5" cy="351.465" r="49.426"/>
        </g>
        <g transform="matrix(-0.457916,0,0,0.457916,742.548,754.398)">
            <circle cx="714.5" cy="351.465" r="49.426"/>
        </g>
        <g transform="matrix(-0.457916,0,0,0.457916,742.548,858.148)">
            <circle cx="714.5" cy="351.465" r="49.426"/>
        </g>
        <g transform="matrix(-0.536477,0,0,0.536477,694.294,565.484)">
            <circle cx="714.5" cy="351.465" r="49.426"/>
        </g>
        <g transform="matrix(-0.457916,0,0,0.457916,638.163,698.65)">
            <circle cx="714.5" cy="351.465" r="49.426"/>
        </g>
        <g transform="matrix(-0.457916,0,0,0.457916,638.163,802.4)">
            <circle cx="714.5" cy="351.465" r="49.426"/>
        </g>
    </g>
    <g transform="matrix(1.03197,0,0,0.991189,1064.27,1050.66)">
        <g transform="matrix(1.03179,0,0,1.03179,-24.2862,-9.64144)">
            <circle cx="714.5" cy="351.465" r="49.426"/>
        </g>
        <g transform="matrix(0.927622,0,0,0.927622,49.714,132.322)">
            <circle cx="714.5" cy="351.465" r="49.426"/>
        </g>
        <g transform="matrix(0.821401,0,0,0.821401,127.609,270.708)">
            <circle cx="714.5" cy="351.465" r="49.426"/>
        </g>
        <g transform="matrix(0.758864,0,0,0.758864,172.291,397.347)">
            <circle cx="714.5" cy="351.465" r="49.426"/>
        </g>
        <g transform="matrix(0.689919,0,0,0.689919,219.56,529.668)">
            <circle cx="714.5" cy="351.465" r="49.426"/>
        </g>
        <g transform="matrix(-0.758864,0,0,0.758864,1152.73,341.374)">
            <circle cx="714.5" cy="351.465" r="49.426"/>
        </g>
        <g transform="matrix(-0.689919,0,0,0.689919,1105.46,473.695)">
            <circle cx="714.5" cy="351.465" r="49.426"/>
        </g>
        <g transform="matrix(-0.758864,0,0,0.758864,1051.82,283.667)">
            <circle cx="714.5" cy="351.465" r="49.426"/>
        </g>
        <g transform="matrix(-0.689919,0,0,0.689919,1004.55,415.988)">
            <circle cx="714.5" cy="351.465" r="49.426"/>
        </g>
        <g transform="matrix(-0.616619,0,0,0.616619,952.176,543.827)">
            <circle cx="714.5" cy="351.465" r="49.426"/>
        </g>
        <g transform="matrix(-0.758864,0,0,0.758864,955.583,229.07)">
            <circle cx="714.5" cy="351.465" r="49.426"/>
        </g>
        <g transform="matrix(-0.689919,0,0,0.689919,908.314,361.391)">
            <circle cx="714.5" cy="351.465" r="49.426"/>
        </g>
        <g transform="matrix(-0.616619,0,0,0.616619,855.941,489.23)">
            <circle cx="714.5" cy="351.465" r="49.426"/>
        </g>
        <g transform="matrix(-0.689919,0,0,0.689919,803.928,305.643)">
            <circle cx="714.5" cy="351.465" r="49.426"/>
        </g>
        <g transform="matrix(-0.616619,0,0,0.616619,751.556,433.482)">
            <circle cx="714.5" cy="351.465" r="49.426"/>
        </g>
        <g transform="matrix(-0.536477,0,0,0.536477,694.294,565.484)">
            <circle cx="714.5" cy="351.465" r="49.426"/>
        </g>
        <g transform="matrix(-0.821401,0,0,0.821401,1197.75,215.503)">
            <circle cx="714.5" cy="351.465" r="49.426"/>
        </g>
        <g transform="matrix(-0.821401,0,0,0.821401,1098.67,158.208)">
            <circle cx="714.5" cy="351.465" r="49.426"/>
        </g>
        <g transform="matrix(-0.927622,0,0,0.927622,1278.89,77.9676)">
            <circle cx="714.5" cy="351.465" r="49.426"/>
        </g>
    </g>
    <g transform="matrix(1.03197,0,0,0.991189,-735.733,-749.339)">
        <g transform="matrix(0.689919,0,0,0.689919,219.56,529.668)">
            <circle cx="714.5" cy="351.465" r="49.426"/>
        </g>
        <g transform="matrix(0.616619,0,0,0.616619,271.933,657.507)">
            <circle cx="714.5" cy="351.465" r="49.426"/>
        </g>
        <g transform="matrix(0.536477,0,0,0.536477,329.195,789.509)">
            <circle cx="714.5" cy="351.465" r="49.426"/>
        </g>
        <g transform="matrix(0.457916,0,0,0.457916,385.326,922.676)">
            <circle cx="714.5" cy="351.465" r="49.426"/>
        </g>
        <g transform="matrix(0.457916,0,0,0.457916,385.326,1026.43)">
            <circle cx="714.5" cy="351.465" r="49.426"/>
        </g>
        <g transform="matrix(0.616619,0,0,0.616619,372.792,601.534)">
            <circle cx="714.5" cy="351.465" r="49.426"/>
        </g>
        <g transform="matrix(0.536477,0,0,0.536477,430.054,733.536)">
            <circle cx="714.5" cy="351.465" r="49.426"/>
        </g>
        <g transform="matrix(0.457916,0,0,0.457916,486.186,866.702)">
            <circle cx="714.5" cy="351.465" r="49.426"/>
        </g>
        <g transform="matrix(0.457916,0,0,0.457916,486.186,970.452)">
            <circle cx="714.5" cy="351.465" r="49.426"/>
        </g>
        <g transform="matrix(0.616619,0,0,0.616619,473.706,543.827)">
            <circle cx="714.5" cy="351.465" r="49.426"/>
        </g>
        <g transform="matrix(0.536477,0,0,0.536477,530.968,675.829)">
            <circle cx="714.5" cy="351.465" r="49.426"/>
        </g>
        <g transform="matrix(0.457916,0,0,0.457916,587.099,808.996)">
            <circle cx="714.5" cy="351.465" r="49.426"/>
        </g>
        <g transform="matrix(0.457916,0,0,0.457916,587.099,912.746)">
            <circle cx="714.5" cy="351.465" r="49.426"/>
        </g>
        <g transform="matrix(0.536477,0,0,0.536477,627.203,621.232)">
            <circle cx="714.5" cy="351.465" r="49.426"/>
        </g>
        <g transform="matrix(0.457916,0,0,0.457916,683.334,754.398)">
            <circle cx="714.5" cy="351.465" r="49.426"/>
        </g>
        <g transform="matrix(0.457916,0,0,0.457916,683.334,858.148)">
            <circle cx="714.5" cy="351.465" r="49.426"/>
        </g>
        <g transform="matrix(0.536477,0,0,0.536477,731.588,565.484)">
            <circle cx="714.5" cy="351.465" r="49.426"/>
        </g>
        <g transform="matrix(0.457916,0,0,0.457916,787.719,698.65)">
            <circle cx="714.5" cy="351.465" r="49.426"/>
        </g>
        <g transform="matrix(0.457916,0,0,0.457916,787.719,802.4)">
            <circle cx="714.5" cy="351.465" r="49.426"/>
        </g>
    </g>
    <g transform="matrix(1.03197,0,0,0.991189,-735.733,1050.66)">
        <g transform="matrix(1.03179,0,0,1.03179,-24.2862,-9.64144)">
            <circle cx="714.5" cy="351.465" r="49.426"/>
        </g>
        <g transform="matrix(0.927622,0,0,0.927622,49.714,132.322)">
            <circle cx="714.5" cy="351.465" r="49.426"/>
        </g>
        <g transform="matrix(0.821401,0,0,0.821401,127.609,270.708)">
            <circle cx="714.5" cy="351.465" r="49.426"/>
        </g>
        <g transform="matrix(0.758864,0,0,0.758864,172.291,397.347)">
            <circle cx="714.5" cy="351.465" r="49.426"/>
        </g>
        <g transform="matrix(0.689919,0,0,0.689919,219.56,529.668)">
            <circle cx="714.5" cy="351.465" r="49.426"/>
        </g>
        <g transform="matrix(0.758864,0,0,0.758864,273.151,341.374)">
            <circle cx="714.5" cy="351.465" r="49.426"/>
        </g>
        <g transform="matrix(0.689919,0,0,0.689919,320.42,473.695)">
            <circle cx="714.5" cy="351.465" r="49.426"/>
        </g>
        <g transform="matrix(0.758864,0,0,0.758864,374.064,283.667)">
            <circle cx="714.5" cy="351.465" r="49.426"/>
        </g>
        <g transform="matrix(0.689919,0,0,0.689919,421.333,415.988)">
            <circle cx="714.5" cy="351.465" r="49.426"/>
        </g>
        <g transform="matrix(0.616619,0,0,0.616619,473.706,543.827)">
            <circle cx="714.5" cy="351.465" r="49.426"/>
        </g>
        <g transform="matrix(0.758864,0,0,0.758864,470.299,229.07)">
            <circle cx="714.5" cy="351.465" r="49.426"/>
        </g>
        <g transform="matrix(0.689919,0,0,0.689919,517.568,361.391)">
            <circle cx="714.5" cy="351.465" r="49.426"/>
        </g>
        <g transform="matrix(0.616619,0,0,0.616619,569.941,489.23)">
            <circle cx="714.5" cy="351.465" r="49.426"/>
        </g>
        <g transform="matrix(0.689919,0,0,0.689919,621.953,305.643)">
            <circle cx="714.5" cy="351.465" r="49.426"/>
        </g>
        <g transform="matrix(0.616619,0,0,0.616619,674.326,433.482)">
            <circle cx="714.5" cy="351.465" r="49.426"/>
        </g>
        <g transform="matrix(0.536477,0,0,0.536477,731.588,565.484)">
            <circle cx="714.5" cy="351.465" r="49.426"/>
        </g>
        <g transform="matrix(0.821401,0,0,0.821401,228.133,215.503)">
            <circle cx="714.5" cy="351.465" r="49.426"/>
        </g>
        <g transform="matrix(0.821401,0,0,0.821401,327.214,158.208)">
            <circle cx="714.5" cy="351.465" r="49.426"/>
        </g>
        <g transform="matrix(0.821401,0,0,0.821401,327.214,158.208)">
            <circle cx="714.5" cy="351.465" r="49.426"/>
        </g>
        <g transform="matrix(0.927622,0,0,0.927622,146.988,77.9676)">
            <circle cx="714.5" cy="351.465" r="49.426"/>
        </g>
    </g>
</svg>
